<svg xmlns="http://www.w3.org/2000/svg" xmlns:xlink="http://www.w3.org/1999/xlink" width="851" zoomAndPan="magnify" viewBox="0 0 638.25 236.249991" height="315" preserveAspectRatio="xMidYMid meet" version="1.0"><defs><g/><clipPath id="bab684f225"><path d="M 90.632812 81.898438 L 139.140625 81.898438 L 139.140625 153.84375 L 90.632812 153.84375 Z M 90.632812 81.898438 " clip-rule="nonzero"/></clipPath><clipPath id="58af5a3169"><path d="M 171.742188 81.898438 L 220.460938 81.898438 L 220.460938 153.84375 L 171.742188 153.84375 Z M 171.742188 81.898438 " clip-rule="nonzero"/></clipPath><clipPath id="d0fec0eac3"><path d="M 96.523438 114.601562 L 214.054688 114.601562 L 214.054688 122.453125 L 96.523438 122.453125 Z M 96.523438 114.601562 " clip-rule="nonzero"/></clipPath><clipPath id="28cbb4a2bc"><path d="M 95.84375 113.921875 L 214.730469 113.921875 L 214.730469 122.984375 L 95.84375 122.984375 Z M 95.84375 113.921875 " clip-rule="nonzero"/></clipPath></defs><g clip-path="url(#bab684f225)"><path fill="#ffffff" d="M 126.292969 153.605469 L 137.703125 153.605469 C 138.601562 153.605469 139.332031 152.875 139.332031 151.976562 L 139.332031 83.527344 C 139.332031 82.628906 138.601562 81.898438 137.703125 81.898438 L 92.070312 81.898438 C 91.171875 81.898438 90.441406 82.628906 90.441406 83.527344 L 90.441406 93.304688 C 90.441406 94.207031 91.171875 94.933594 92.070312 94.933594 L 124.664062 94.933594 L 124.664062 112.863281 L 96.960938 112.863281 C 96.058594 112.863281 95.328125 113.59375 95.328125 114.492188 L 95.328125 122.640625 C 95.328125 123.539062 96.058594 124.269531 96.960938 124.269531 L 124.664062 124.269531 L 124.664062 151.976562 C 124.664062 152.875 125.394531 153.605469 126.292969 153.605469 Z M 126.292969 153.605469 " fill-opacity="1" fill-rule="nonzero"/></g><g clip-path="url(#58af5a3169)"><path fill="#ffffff" d="M 184.800781 153.605469 L 173.394531 153.605469 C 172.492188 153.605469 171.761719 152.875 171.761719 151.976562 L 171.761719 83.527344 C 171.761719 82.628906 172.492188 81.898438 173.394531 81.898438 L 219.023438 81.898438 C 219.925781 81.898438 220.65625 82.628906 220.65625 83.527344 L 220.65625 93.304688 C 220.65625 94.207031 219.925781 94.933594 219.023438 94.933594 L 186.429688 94.933594 L 186.429688 112.863281 L 214.136719 112.863281 C 215.035156 112.863281 215.765625 113.59375 215.765625 114.492188 L 215.765625 122.640625 C 215.765625 123.539062 215.035156 124.269531 214.136719 124.269531 L 186.429688 124.269531 L 186.429688 151.976562 C 186.429688 152.875 185.699219 153.605469 184.800781 153.605469 Z M 184.800781 153.605469 " fill-opacity="1" fill-rule="nonzero"/></g><g clip-path="url(#d0fec0eac3)"><path fill="#bfa479" d="M 95.84375 113.949219 L 214.730469 113.949219 L 214.730469 123.09375 L 95.84375 123.09375 Z M 95.84375 113.949219 " fill-opacity="1" fill-rule="nonzero"/></g><g clip-path="url(#28cbb4a2bc)"><path stroke-linecap="butt" transform="matrix(0.566502, 0, 0, 0.566502, 95.845173, 113.920073)" fill="none" stroke-linejoin="miter" d="M -0.00251121 0.00318012 L -0.00251121 16.248722 L 209.858724 16.248722 L 209.858724 0.00318012 L -0.00251121 0.00318012 " stroke="#ffffff" stroke-width="203.23773" stroke-opacity="1" stroke-miterlimit="4"/></g><g fill="#ffffff" fill-opacity="1"><g transform="translate(263.954153, 126.647935)"><g><path d="M 0.140625 -21.9375 L 0.390625 -21.9375 C 1.515625 -21.96875 2.203125 -21.578125 2.203125 -20.53125 L 2.203125 -2.96875 C 2.203125 -1.921875 1.515625 -1.546875 0.390625 -1.546875 L 0.140625 -1.546875 L 0.140625 0 L 8.890625 0 L 8.890625 -1.546875 L 8.640625 -1.546875 C 7.515625 -1.546875 6.828125 -1.921875 6.828125 -2.96875 L 6.828125 -10.625 L 10.484375 -10.59375 C 12.796875 -10.59375 14.5625 -10.484375 14.5625 -8.125 L 14.5625 -7.921875 L 16.15625 -7.921875 L 16.15625 -15.546875 L 14.59375 -15.546875 L 14.59375 -15.328125 C 14.5625 -12.828125 13.015625 -12.28125 10.484375 -12.25 L 6.828125 -12.21875 L 6.828125 -21.9375 L 11.921875 -21.9375 C 14.53125 -21.9375 15.859375 -20.390625 16.84375 -18.171875 C 17.171875 -17.484375 17.390625 -16.765625 17.703125 -16.078125 L 17.78125 -15.90625 L 19.265625 -15.96875 L 17.671875 -23.484375 L 0.140625 -23.484375 Z M 0.140625 -21.9375 "/></g></g></g><g fill="#ffffff" fill-opacity="1"><g transform="translate(283.218371, 126.647935)"><g><path d="M 0.296875 -13.65625 L 0.546875 -13.65625 C 1.65625 -13.65625 1.984375 -13.296875 1.984375 -12.21875 L 1.984375 -2.96875 C 1.984375 -1.921875 1.65625 -1.546875 0.546875 -1.546875 L 0.296875 -1.546875 L 0.296875 0 L 8.3125 0 L 8.3125 -1.546875 L 8.0625 -1.546875 C 6.9375 -1.546875 6.609375 -1.921875 6.609375 -2.96875 L 6.609375 -17.09375 L 0.296875 -15.140625 Z M 3.6875 -17.75 C 5.3125 -17.75 6.609375 -19.125 6.609375 -20.640625 C 6.609375 -22.15625 5.3125 -23.484375 3.6875 -23.484375 C 2.03125 -23.484375 0.796875 -22.15625 0.796875 -20.640625 C 0.796875 -19.125 2.03125 -17.75 3.6875 -17.75 Z M 3.6875 -17.75 "/></g></g></g><g fill="#ffffff" fill-opacity="1"><g transform="translate(291.675839, 126.647935)"><g><path d="M 0.1875 0 L 8.203125 0 L 8.203125 -1.546875 L 7.953125 -1.546875 C 6.828125 -1.546875 6.5 -1.921875 6.5 -2.96875 L 6.5 -12.21875 C 6.5 -13.65625 7.984375 -15.5 9.5 -15.5 C 11.28125 -15.5 12.109375 -13.875 12.109375 -12.21875 L 12.109375 -2.96875 C 12.109375 -1.921875 11.78125 -1.546875 10.65625 -1.546875 L 10.40625 -1.546875 L 10.40625 0 L 18.4375 0 L 18.4375 -1.546875 L 18.171875 -1.546875 C 17.09375 -1.546875 16.765625 -1.921875 16.765625 -2.96875 L 16.765625 -12.28125 C 16.765625 -15.6875 14.390625 -17.34375 11.0625 -17.34375 C 9.390625 -17.34375 7.703125 -16.953125 6.5 -15.75 L 6.5 -17.09375 L 0.1875 -15.140625 L 0.1875 -13.65625 L 0.4375 -13.65625 C 1.546875 -13.65625 1.875 -13.296875 1.875 -12.21875 L 1.875 -2.96875 C 1.875 -1.921875 1.546875 -1.546875 0.4375 -1.546875 L 0.1875 -1.546875 Z M 0.1875 0 "/></g></g></g><g fill="#ffffff" fill-opacity="1"><g transform="translate(310.217197, 126.647935)"><g><path d="M 0.765625 -8.5625 C 0.765625 -4.265625 2.390625 -0.03125 7.375 -0.03125 C 8.78125 -0.03125 10.4375 -0.65625 11.34375 -1.765625 L 11.34375 0.109375 L 17.703125 -1.875 L 17.703125 -3.359375 C 16.546875 -3.25 16.015625 -3.546875 16.015625 -4.765625 L 16.015625 -25.40625 L 9.6875 -23.421875 L 9.6875 -21.9375 C 10.84375 -22.046875 11.34375 -21.75 11.34375 -20.53125 L 11.34375 -16.765625 C 10.4375 -17.28125 9.359375 -17.390625 8.34375 -17.390625 C 2.890625 -17.390625 0.765625 -13.546875 0.765625 -8.5625 Z M 5.640625 -7.953125 C 5.640625 -11.015625 6.359375 -15.828125 9.390625 -15.828125 C 10.4375 -15.828125 11.171875 -15.25 11.34375 -14.59375 L 11.34375 -3.765625 C 11.015625 -2.921875 9.6875 -2.03125 8.8125 -2.03125 C 6.078125 -2.03125 5.640625 -5.890625 5.640625 -7.953125 Z M 5.640625 -7.953125 "/></g></g></g><g fill="#ffffff" fill-opacity="1"><g transform="translate(328.035695, 126.647935)"><g/></g></g><g fill="#ffffff" fill-opacity="1"><g transform="translate(335.336588, 126.647935)"><g><path d="M 0.5 -21.9375 C 1.625 -21.9375 2.3125 -21.578125 2.3125 -20.53125 L 2.3125 -2.96875 C 2.3125 -1.921875 1.625 -1.546875 0.5 -1.546875 L 0.25 -1.546875 L 0.25 0 L 9 0 L 9 -1.546875 L 8.75 -1.546875 C 7.625 -1.546875 6.9375 -1.921875 6.9375 -2.96875 L 6.9375 -10.59375 L 16.328125 -10.59375 L 16.328125 -2.96875 C 16.328125 -1.921875 15.65625 -1.546875 14.53125 -1.546875 L 14.28125 -1.546875 L 14.28125 0 L 23.015625 0 L 23.015625 -1.546875 L 22.765625 -1.546875 C 21.640625 -1.546875 21 -1.921875 21 -2.96875 L 21 -20.53125 C 21 -21.578125 21.640625 -21.9375 22.765625 -21.9375 L 23.015625 -21.9375 L 23.015625 -23.484375 L 14.28125 -23.484375 L 14.28125 -21.9375 L 14.53125 -21.9375 C 15.65625 -21.9375 16.328125 -21.578125 16.328125 -20.53125 L 16.328125 -12.140625 L 6.9375 -12.140625 L 6.9375 -20.53125 C 6.9375 -21.578125 7.625 -21.9375 8.75 -21.9375 L 9 -21.9375 L 9 -23.484375 L 0.25 -23.484375 L 0.25 -21.9375 Z M 0.5 -21.9375 "/></g></g></g><g fill="#ffffff" fill-opacity="1"><g transform="translate(358.901826, 126.647935)"><g><path d="M 8.859375 0.359375 C 14.453125 0.359375 16.984375 -3.71875 16.984375 -8.5625 C 16.984375 -13.515625 14.5 -17.34375 8.859375 -17.34375 C 3.21875 -17.34375 0.765625 -13.484375 0.765625 -8.5625 C 0.765625 -3.71875 3.21875 0.359375 8.859375 0.359375 Z M 5.640625 -8.5625 C 5.640625 -10.703125 5.8125 -15.9375 8.859375 -15.9375 C 11.890625 -15.9375 12.109375 -10.703125 12.109375 -8.5625 C 12.109375 -6.4375 11.890625 -1.078125 8.859375 -1.078125 C 5.8125 -1.078125 5.640625 -6.4375 5.640625 -8.5625 Z M 5.640625 -8.5625 "/></g></g></g><g fill="#ffffff" fill-opacity="1"><g transform="translate(376.575752, 126.647935)"><g><path d="M 8.171875 7.953125 L 8.171875 6.390625 C 7.015625 6.46875 6.46875 6.21875 6.46875 4.984375 L 6.46875 -0.71875 C 7.40625 -0.109375 8.59375 0 9.6875 0 C 15.140625 0 17.28125 -3.828125 17.28125 -8.8125 C 17.28125 -13.125 15.65625 -17.34375 10.65625 -17.34375 C 9.140625 -17.34375 7.515625 -16.875 6.46875 -15.75 L 6.46875 -17.453125 L 0.140625 -15.46875 L 0.140625 -13.984375 C 1.296875 -14.0625 1.84375 -13.8125 1.84375 -12.578125 L 1.84375 4.984375 C 1.84375 6.078125 1.484375 6.390625 0.390625 6.390625 L 0.140625 6.390625 L 0.140625 7.953125 Z M 6.46875 -13.265625 C 6.9375 -14.3125 7.984375 -15.359375 9.21875 -15.359375 C 11.96875 -15.359375 12.390625 -11.5 12.390625 -9.46875 C 12.390625 -6.5 11.671875 -1.59375 8.640625 -1.59375 C 7.921875 -1.59375 6.46875 -2.390625 6.46875 -3.21875 Z M 6.46875 -13.265625 "/></g></g></g><g fill="#ffffff" fill-opacity="1"><g transform="translate(394.864117, 126.647935)"><g><path d="M 0.796875 -8.453125 C 0.796875 -3.578125 3.65625 0.359375 8.8125 0.359375 C 12.46875 0.359375 14.3125 -1.546875 15.828125 -4.65625 L 14.703125 -5.34375 C 13.8125 -3.859375 12 -2.921875 10.265625 -2.921875 C 6.90625 -2.921875 5.640625 -6.4375 5.640625 -9.25 L 15.71875 -9.25 L 15.71875 -9.828125 C 15.71875 -14.09375 13.40625 -17.34375 8.640625 -17.34375 C 3.5 -17.34375 0.796875 -13.234375 0.796875 -8.453125 Z M 5.703125 -10.765625 C 6 -12.90625 6.6875 -15.859375 8.453125 -15.859375 C 10.15625 -15.859375 10.953125 -13.1875 11.09375 -10.765625 Z M 5.703125 -10.765625 "/></g></g></g><g fill="#ffffff" fill-opacity="1"><g transform="translate(411.634471, 126.647935)"><g/></g></g><g fill="#ffffff" fill-opacity="1"><g transform="translate(418.935364, 126.647935)"><g><path d="M 0.140625 -21.9375 L 0.390625 -21.9375 C 1.515625 -21.96875 2.203125 -21.578125 2.203125 -20.53125 L 2.203125 -2.96875 C 2.203125 -1.921875 1.515625 -1.546875 0.390625 -1.546875 L 0.140625 -1.546875 L 0.140625 0 L 8.890625 0 L 8.890625 -1.546875 L 8.640625 -1.546875 C 7.515625 -1.546875 6.828125 -1.921875 6.828125 -2.96875 L 6.828125 -10.625 L 10.484375 -10.59375 C 12.796875 -10.59375 14.5625 -10.484375 14.5625 -8.125 L 14.5625 -7.921875 L 16.15625 -7.921875 L 16.15625 -15.546875 L 14.59375 -15.546875 L 14.59375 -15.328125 C 14.5625 -12.828125 13.015625 -12.28125 10.484375 -12.25 L 6.828125 -12.21875 L 6.828125 -21.9375 L 11.921875 -21.9375 C 14.53125 -21.9375 15.859375 -20.390625 16.84375 -18.171875 C 17.171875 -17.484375 17.390625 -16.765625 17.703125 -16.078125 L 17.78125 -15.90625 L 19.265625 -15.96875 L 17.671875 -23.484375 L 0.140625 -23.484375 Z M 0.140625 -21.9375 "/></g></g></g><g fill="#ffffff" fill-opacity="1"><g transform="translate(438.199582, 126.647935)"><g><path d="M 6.46875 0.328125 C 8.125 0.328125 9.140625 -0.21875 10.1875 -1.125 C 10.625 -0.1875 11.640625 0.1875 12.578125 0.1875 C 13.984375 0.1875 15.328125 -0.25 16.1875 -1.40625 L 16.296875 -1.546875 L 15.5 -2.53125 C 15.328125 -2.390625 15 -2.09375 14.640625 -2.125 C 14.234375 -2.171875 14.28125 -2.78125 14.28125 -3.078125 L 14.28125 -11.859375 C 14.28125 -15.609375 11.78125 -17.34375 8.0625 -17.34375 C 5.171875 -17.34375 1.40625 -16.265625 1.40625 -12.71875 C 1.40625 -11.5 2.859375 -11.171875 3.65625 -11.171875 C 4.484375 -11.171875 6.078125 -11.5 6.078125 -12.75 C 6.078125 -14.234375 6.359375 -15.859375 7.984375 -15.859375 C 9.25 -15.859375 9.609375 -14.5625 9.609375 -13.515625 C 9.65625 -13.125 9.65625 -12.71875 9.65625 -12.390625 L 9.65625 -10.59375 C 8.890625 -10.84375 8.09375 -10.921875 7.34375 -10.921875 C 3.5 -10.921875 0.5 -8.75 0.5 -4.84375 C 0.5 -1.125 3.25 0.328125 6.46875 0.328125 Z M 5.34375 -4.734375 C 5.34375 -7.015625 6.28125 -9.140625 8.859375 -9.140625 C 9.109375 -9.140625 9.390625 -9.109375 9.65625 -9.03125 L 9.65625 -3 C 9.65625 -2.125 8.53125 -1.375 7.546875 -1.375 C 5.78125 -1.375 5.34375 -3.109375 5.34375 -4.734375 Z M 5.34375 -4.734375 "/></g></g></g><g fill="#ffffff" fill-opacity="1"><g transform="translate(454.789223, 126.647935)"><g><path d="M 8.34375 0 L 8.34375 -1.546875 L 8.09375 -1.546875 C 6.96875 -1.546875 6.65625 -1.921875 6.65625 -2.96875 L 6.65625 -12.21875 C 6.65625 -13.4375 7.4375 -14.59375 8.75 -14.59375 C 9.765625 -14.59375 10.15625 -14.0625 10.625 -13.40625 C 10.734375 -13.265625 10.875 -13.078125 10.984375 -12.9375 C 11.5 -12.328125 12.078125 -12.03125 12.859375 -12.03125 C 14.0625 -12.03125 15.171875 -12.75 15.171875 -14.0625 C 15.171875 -14.5625 14.96875 -15.078125 14.703125 -15.5 C 13.921875 -16.875 12.328125 -17.34375 10.84375 -17.34375 C 9.21875 -17.34375 7.703125 -16.765625 6.65625 -15.609375 L 6.65625 -17.09375 L 0.328125 -15.140625 L 0.328125 -13.65625 L 0.578125 -13.65625 C 1.703125 -13.65625 2.03125 -13.296875 2.03125 -12.21875 L 2.03125 -2.96875 C 2.03125 -1.921875 1.703125 -1.546875 0.578125 -1.546875 L 0.328125 -1.546875 L 0.328125 0 Z M 8.34375 0 "/></g></g></g><g fill="#ffffff" fill-opacity="1"><g transform="translate(470.077728, 126.647935)"><g><path d="M 8.203125 0 L 8.203125 -1.546875 L 7.953125 -1.546875 C 6.828125 -1.515625 6.5 -1.921875 6.5 -2.96875 L 6.5 -12.21875 C 6.5 -13.734375 7.546875 -15.5 9.21875 -15.5 C 11.28125 -15.5 11.859375 -14.125 11.859375 -12.21875 L 11.859375 -2.96875 C 11.859375 -1.921875 11.53125 -1.515625 10.40625 -1.546875 L 10.15625 -1.546875 L 10.15625 0 L 18.171875 0 L 18.171875 -1.546875 L 17.921875 -1.546875 C 16.84375 -1.515625 16.515625 -1.921875 16.515625 -2.96875 L 16.515625 -12.28125 C 16.515625 -13.765625 17.75 -15.5 19.328125 -15.5 C 21.109375 -15.5 21.828125 -13.84375 21.828125 -12.21875 L 21.828125 -2.96875 C 21.828125 -1.921875 21.5 -1.515625 20.421875 -1.546875 L 20.171875 -1.546875 L 20.171875 0 L 28.1875 0 L 28.1875 -1.546875 L 27.9375 -1.546875 C 26.8125 -1.515625 26.484375 -1.921875 26.484375 -2.96875 L 26.484375 -12.28125 C 26.484375 -15.65625 24.4375 -17.34375 21.03125 -17.34375 C 19.015625 -17.34375 17.125 -16.625 15.828125 -15.140625 C 14.78125 -16.875 12.71875 -17.34375 10.8125 -17.34375 C 9.28125 -17.34375 7.734375 -16.90625 6.5 -16.015625 L 6.5 -17.09375 L 0.1875 -15.140625 L 0.1875 -13.65625 L 0.4375 -13.65625 C 1.546875 -13.65625 1.875 -13.296875 1.875 -12.21875 L 1.875 -2.96875 C 1.875 -1.921875 1.546875 -1.515625 0.4375 -1.546875 L 0.1875 -1.546875 L 0.1875 0 Z M 8.203125 0 "/></g></g></g><g fill="#ffffff" fill-opacity="1"><g transform="translate(498.702987, 126.647935)"><g><path d="M 1.015625 -1.65625 C 2.5625 -0.21875 5.203125 0.359375 7.265625 0.359375 C 10.296875 0.359375 14.34375 -1.015625 14.34375 -4.65625 C 14.34375 -7.953125 11.59375 -8.890625 9.140625 -10.1875 C 7.1875 -11.234375 5.453125 -12.28125 5.453125 -14.09375 C 5.453125 -15.171875 6.21875 -15.859375 7.265625 -15.859375 C 9.46875 -15.859375 11.28125 -13.875 12.328125 -11.3125 L 13.65625 -11.3125 L 13.65625 -14.421875 C 13.65625 -14.5625 13.40625 -14.8125 13.328125 -14.921875 C 11.921875 -16.546875 9.6875 -17.34375 7.546875 -17.34375 C 4.375 -17.34375 0.875 -16.046875 0.875 -12.28125 C 0.875 -9.28125 3.6875 -7.625 6.1875 -6.25 C 8.203125 -5.125 10.046875 -4.1875 10.046875 -2.8125 C 10.046875 -1.65625 8.59375 -1.15625 7.625 -1.15625 C 5.3125 -1.15625 2.34375 -3.359375 2.421875 -6.140625 L 1.15625 -6.25 L 0.546875 -2.453125 C 0.5 -2.171875 0.828125 -1.8125 1.015625 -1.65625 Z M 1.015625 -1.65625 "/></g></g></g><g fill="#ffffff" fill-opacity="1"><g transform="translate(513.451158, 126.647935)"><g/></g></g></svg>